# xmcd CD database file generated by MAGIX-FreeDB-MP3_Maker_16 v2.0beta1
#
# Track frame offsets:
#      150
#      14252
#      19453
#      30353
#      43544
#      53592
#      68395
#      87587
#      96722
#      113263
#      129543
#
# Disc length: 1881 seconds
#
# Revision: 0
# Processed by: cddbd v1.5.2PL0 Copyright (c) Steve Scherf et al.
# Submitted via: MAGIX-FreeDB-MP3_Maker_16 v2.0beta1
#
DISCID=8307570b
DTITLE=Brendan MacFarlane - The Road
DYEAR=2012
DGENRE=Country
TTITLE0=Brendan MacFarlane - Footprints
TTITLE1=Brendan MacFarlane - Get to Heaven
TTITLE2=Brendan MacFarlane - Gonna know
TTITLE3=Brendan MacFarlane - Looking for Jesus
TTITLE4=Brendan MacFarlane - Take my Soul
TTITLE5=Brendan MacFarlane - Soulja
TTITLE6=Brendan MacFarlane - Money won't
TTITLE7=Brendan MacFarlane - Where Were you
TTITLE8=Brendan MacFarlane - Tonight
TTITLE9=Brendan MacFarlane - Wont you believe
TTITLE10=Brendan MacFarlane - The Road
EXTD=
EXTT0=
EXTT1=
EXTT2=
EXTT3=
EXTT4=
EXTT5=
EXTT6=
EXTT7=
EXTT8=
EXTT9=
EXTT10=
PLAYORDER=
